With: Joakim Natterqvist, Sofia Helin en Stellan Skarsgard

Speciale Editie, Lange Versie,
Arn (Joakim Natterqvist) is de zoon van een hooggeplaatste Zweedse edelman, die zijn jeugd onder de hoede van de kerk heeft doorgebracht. Als Arn zich ondanks de afkeuring van zijn omgeving inlaat met een verboden liefde, wordt hij naar het heilige land gestuurd. Daar zal Arn als tempelier boete moeten doen voor zijn zonden.

Special Edition, Long Version,
Arn, the son of a high-ranking Swedish nobleman is educated in a monastery and sent to the Holy Land as a knight templar to do penance for a forbidden love. 
 
http://www.imdb.com/title/tt0837106	

------------------------ Dutch Friends ------------------------
---------------------------------------------------------------
- Bezoek ook eens mijn vrienden op:  http://www.Film-Test.nl --
----- voor mijn Nederlandse Sync. ondertitels ---- en meer ----
------- http://www.Film-Test.nl ---- Over Films en meer -------
---------------------------------------------------------------

General:

Complete name                    : Arn, TempelriddarenPart01.avi
Format                           : AVI
Format/Info                      : Audio Video Interleave
File size                        : 798 MiB
Duration                         : 47mn 24s
Overall bit rate                 : 2 353 Kbps

Video:

Format                           : MPEG-4 Visual
Format profile                   : Simple@L3
Format settings, BVOP            : No
Format settings, QPel            : No
Format settings, GMC             : No warppoints
Format settings, Matrix          : Default (H.263)
Codec ID                         : XVID
Codec ID/Hint                    : XviD
Duration                         : 47mn 24s
Bit rate                         : 1 894 Kbps
Width                            : 704 pixels
Height                           : 396 pixels
Display aspect ratio             : 16:9
Frame rate                       : 25.000 fps
Color space                      : YUV
Chroma subsampling               : 4:2:0
Bit depth                        : 8 bits
Scan type                        : Progressive
Compression mode                 : Lossy
Bits/(Pixel*Frame)               : 0.272
Stream size                      : 642 MiB (81%)
Writing library                  : XviD 1.1.2 (UTC 2006-11-01)

Audio:

Format                           : AC-3
Format/Info                      : Audio Coding 3
Mode extension                   : CM (complete main)
Codec ID                         : 2000
Duration                         : 47mn 23s
Bit rate mode                    : Constant
Bit rate                         : 448 Kbps
Channel(s)                       : 6 channels
Channel positions                : Front: L C R, Side: L R, LFE
Sampling rate                    : 48.0 KHz
Bit depth                        : 16 bits
Compression mode                 : Lossy
Stream size                      : 152 MiB (19%)
Alignment                        : Aligned on interleaves
Interleave, duration             : 32 ms (0.80 video frame)
Interleave, preload duration     : 288 ms